<svg id="Layer_1" enable-background="new 0 0 512 512" height="512" viewBox="0 0 512 512" width="512" xmlns="http://www.w3.org/2000/svg"><path d="m27.362 353.644c0 24.967 20.313 45.28 45.279 45.28s45.279-20.313 45.279-45.28-20.313-45.279-45.279-45.279-45.279 20.311-45.279 45.279zm74.558 0c0 16.145-13.135 29.28-29.279 29.28s-29.279-13.135-29.279-29.28 13.135-29.279 29.279-29.279 29.279 13.134 29.279 29.279zm-93.92 158.357h129.281c4.418 0 8-3.582 8-8v-71.921c0-17.989-14.636-32.625-32.625-32.625h-9.834c-1.437 0-2.848.387-4.083 1.121-7.872 4.672-16.896 7.141-26.099 7.141s-18.227-2.469-26.098-7.141c-1.235-.733-2.646-1.121-4.083-1.121h-9.835c-17.988 0-32.624 14.635-32.624 32.625v71.922c0 4.418 3.583 7.999 8 7.999zm8-79.921c0-9.167 7.458-16.625 16.625-16.625h7.715c9.864 5.411 20.983 8.262 32.301 8.262s22.437-2.85 32.302-8.262h7.714c9.167 0 16.625 7.458 16.625 16.625v63.922h-113.282zm423.361-33.157c24.967 0 45.279-20.313 45.279-45.28s-20.313-45.279-45.279-45.279c-24.968 0-45.28 20.312-45.28 45.279s20.312 45.28 45.28 45.28zm0-74.559c16.145 0 29.279 13.135 29.279 29.279 0 16.145-13.135 29.28-29.279 29.28-16.146 0-29.28-13.135-29.28-29.28 0-16.144 13.134-29.279 29.28-29.279zm40.014 75.091h-9.834c-1.438 0-2.848.387-4.083 1.121-7.871 4.672-16.896 7.141-26.098 7.141s-18.227-2.469-26.099-7.141c-1.235-.733-2.646-1.121-4.083-1.121h-9.835c-17.989 0-32.625 14.636-32.625 32.625v71.922c0 4.418 3.582 8 8 8h129.282c4.418 0 8-3.582 8-8v-71.922c0-17.99-14.635-32.625-32.625-32.625zm16.625 96.546h-113.281v-63.921c0-9.167 7.458-16.625 16.625-16.625h7.715c9.865 5.412 20.984 8.262 32.302 8.262s22.437-2.851 32.301-8.262h7.714c9.167 0 16.625 7.458 16.625 16.625v63.921zm-312.64-113.923v71.922c0 4.418 3.582 8 8 8h129.281c4.418 0 8-3.582 8-8v-71.921c0-17.989-14.636-32.625-32.625-32.625h-9.834c-1.437 0-2.848.387-4.083 1.121-7.871 4.671-16.896 7.141-26.098 7.141-9.203 0-18.228-2.469-26.099-7.141-1.235-.733-2.646-1.121-4.083-1.121h-9.835c-17.988-.001-32.624 14.635-32.624 32.624zm16 0c0-9.167 7.458-16.625 16.625-16.625h7.715c9.865 5.412 20.983 8.261 32.302 8.261 11.317 0 22.436-2.85 32.301-8.261h7.714c9.167 0 16.625 7.458 16.625 16.625v63.922h-113.282zm56.64-33.157c24.967 0 45.279-20.312 45.279-45.279s-20.312-45.279-45.279-45.279-45.279 20.312-45.279 45.279 20.313 45.279 45.279 45.279zm0-74.558c16.145 0 29.279 13.135 29.279 29.279s-13.134 29.279-29.279 29.279-29.279-13.135-29.279-29.279 13.135-29.279 29.279-29.279zm-228.638-179.081c0 24.967 20.313 45.279 45.279 45.279s45.279-20.312 45.279-45.279-20.312-45.28-45.279-45.28-45.279 20.312-45.279 45.28zm74.558 0c0 16.145-13.135 29.279-29.279 29.279s-29.279-13.135-29.279-29.279 13.135-29.279 29.279-29.279 29.279 13.134 29.279 29.279zm-93.92 158.357h129.281c4.418 0 8-3.582 8-8v-71.921c0-17.989-14.636-32.625-32.625-32.625h-9.834c-1.437 0-2.848.387-4.083 1.12-7.872 4.672-16.896 7.141-26.099 7.141s-18.227-2.469-26.098-7.141c-1.235-.733-2.646-1.121-4.083-1.121h-9.835c-17.988.001-32.624 14.637-32.624 32.626v71.921c0 4.419 3.583 8 8 8zm8-79.921c0-9.167 7.458-16.625 16.625-16.625h7.715c9.865 5.412 20.983 8.261 32.301 8.261s22.436-2.85 32.302-8.261h7.714c9.167 0 16.625 7.458 16.625 16.625v63.921h-113.282zm378.081-78.436c0 24.967 20.313 45.279 45.28 45.279s45.279-20.312 45.279-45.279-20.313-45.279-45.279-45.279c-24.968-.001-45.28 20.311-45.28 45.279zm74.559 0c0 16.145-13.135 29.279-29.279 29.279-16.146 0-29.28-13.135-29.28-29.279s13.135-29.279 29.28-29.279c16.144-.001 29.279 13.134 29.279 29.279zm10.735 45.811h-9.834c-1.437 0-2.848.387-4.083 1.121-7.871 4.671-16.896 7.141-26.098 7.141s-18.227-2.469-26.099-7.141c-1.236-.733-2.646-1.12-4.083-1.12h-9.835c-17.989 0-32.625 14.636-32.625 32.625v71.921c0 4.418 3.582 8 8 8h129.282c4.418 0 8-3.582 8-8v-71.921c0-17.99-14.635-32.626-32.625-32.626zm16.625 96.546h-113.281v-63.921c0-9.167 7.458-16.625 16.625-16.625h7.715c9.866 5.412 20.984 8.261 32.302 8.261s22.436-2.85 32.301-8.261h7.714c9.167 0 16.625 7.458 16.625 16.625v63.921zm-167.359-113.923c0-17.989-14.636-32.625-32.625-32.625h-9.834c-1.438 0-2.848.387-4.083 1.121-7.871 4.672-16.896 7.141-26.098 7.141-9.203 0-18.228-2.469-26.099-7.141-1.235-.733-2.646-1.121-4.083-1.121h-9.835c-17.989 0-32.625 14.636-32.625 32.625v71.922c0 4.418 3.582 8 8 8h129.281c4.418 0 8-3.582 8-8v-71.922zm-16 63.922h-113.281v-63.922c0-9.167 7.458-16.625 16.625-16.625h7.715c9.864 5.411 20.983 8.262 32.302 8.262 11.317 0 22.437-2.851 32.301-8.262h7.714c9.167 0 16.625 7.458 16.625 16.625v63.922zm-56.641-97.078c24.967 0 45.279-20.313 45.279-45.28s-20.312-45.28-45.279-45.28-45.279 20.312-45.279 45.279 20.313 45.281 45.279 45.281zm0-74.56c16.145 0 29.279 13.135 29.279 29.279 0 16.145-13.135 29.28-29.279 29.28s-29.279-13.135-29.279-29.28c0-16.144 13.135-29.279 29.279-29.279z"/></svg>