<svg enable-background="new 0 0 512 512" height="512" viewBox="0 0 512 512" width="512" xmlns="http://www.w3.org/2000/svg"><g id="induction_class_teach_teaching"><path d="m512 0v10.639h-512v-10.639zm0 433.49v78.51h-158.661v-78.51c0-16.947 9.124-45.959 49.154-55.668-11.691-9.045-19.24-23.197-19.24-39.09 0-20.105 12.079-37.432 29.354-45.139h-136.562c17.277 7.707 29.355 25.033 29.355 45.139 0 15.891-7.547 30.041-19.236 39.086 40.041 9.705 49.166 38.723 49.166 55.672v78.51h-158.66v-78.51c0-16.947 9.123-45.959 49.154-55.668-11.691-9.045-19.24-23.197-19.24-39.09 0-20.105 12.078-37.432 29.355-45.139h-35.563v.211h-93.252c-1.123.799-2.135 1.504-3.172 2.117 14.803 8.543 24.793 24.527 24.793 42.811 0 15.891-7.547 30.041-19.236 39.086 40.042 9.705 49.167 38.723 49.167 55.672v78.51h-158.66v-78.51c0-16.947 9.124-45.959 49.154-55.668-11.691-9.045-19.24-23.197-19.24-39.09 0-20.105 12.078-37.432 29.355-45.139h-37.27v-275.505h467.985v275.505h-37.285c17.275 7.707 29.354 25.033 29.354 45.139 0 15.891-7.547 30.041-19.235 39.086 40.041 9.705 49.166 38.723 49.166 55.672zm-432.655-40.09c-33.405.006-60.474 10.324-60.474 40.09v59.654h22.093l-.009-55.643c0-2.215 1.814-4.012 4.049-4.012s4.047 1.797 4.047 4.012l.014 55.643h60.564l.013-55.643c0-2.215 1.812-4.012 4.048-4.012s4.049 1.797 4.049 4.012l-.009 55.643h22.092v-59.654c-.001-29.765-27.068-40.084-60.477-40.09zm-.007-85.218c-16.875 0-30.553 13.678-30.553 30.551 0 16.875 13.678 30.553 30.553 30.553 16.873 0 30.553-13.678 30.553-30.553 0-16.874-13.68-30.551-30.553-30.551zm127.457-77.531 53.28 24.379c9.565 3.357 14.778-1.239 17.019-5.42 3.044-5.678 1.09-14.185-4.091-16.529l-50.409-23.377-15.149-47.129c-.958-2.979-3.228-5.613-5.681-7.162-7.594-4.549-22.924-10.613-39.213-11.759l-10.449 14.733 10.539 85.766-11.76 13.72-11.758-13.72 10.539-85.766-10.449-14.733c-16.289 1.146-31.713 7.325-39.305 11.876-2.291 1.549-4.52 4.209-5.432 7.045 0 0-17.521 55.3-17.487 56.734l1.247 52.123c.166 6.969 5.865 12.504 12.8 12.504h.002c.103 0 .207-.002.312-.004 7.073-.168 12.67-6.039 12.502-13.113l-1.195-49.958 10.652-32.932c2.551 0 3.031 3.084 3.031 5.611l.039 85.265h69.004l.039-85.265c0-2.521.553-5.619 3.092-5.619h.016l11.399 35.002c1.101 3.425 3.593 6.232 6.866 7.728zm-55.914-93.404c19.242 0 34.844-15.598 34.844-34.843s-15.602-34.843-34.844-34.843c-19.244 0-34.843 15.598-34.843 34.843s15.599 34.843 34.843 34.843zm206.65 11.303c1.306-1.307 1.306-3.425-.001-4.731-.653-.653-1.509-.98-2.364-.98-.857 0-1.713.327-2.367.98l-75.904 75.906 5.982 3.482zm-101.533 244.85c-33.404.006-60.473 10.324-60.473 40.09v59.654h22.092l-.008-55.643c0-2.215 1.814-4.012 4.049-4.012s4.047 1.797 4.047 4.012l.014 55.643h60.564l.012-55.643c0-2.215 1.813-4.012 4.049-4.012s4.049 1.797 4.049 4.012l-.01 55.643h22.092v-59.654c0-29.765-27.067-40.084-60.477-40.09zm-.006-85.218c-16.875 0-30.553 13.678-30.553 30.551 0 16.875 13.678 30.553 30.553 30.553 16.873 0 30.553-13.678 30.553-30.553 0-16.874-13.68-30.551-30.553-30.551zm219.008-29.588v-245.506h-437.984v245.505h27.316c-.738-2.678-1.051-5.088-1.092-6.805 0 0-2.238-53.888-.621-58.688l17.578-55.12c4.626-16.114 23.809-21.457 32.046-24.123-7.003-8.586-11.205-19.537-11.205-31.454 0-27.483 22.359-49.843 49.843-49.843s49.844 22.359 49.844 49.843c0 11.901-4.193 22.842-11.18 31.422 8.213 2.644 26.824 7.653 32.18 24.157l13.125 40.832 28.639 13.104 78.705-78.707c11.35-10.398 22.484-3.462 25.941 0 7.152 7.148 7.156 18.787.004 25.945l-76.047 76.049c2.271 7.004 1.821 14.777-1.777 21.492-4.877 9.097-17.434 19.326-36.193 12.103l-53.568-24.509c-.051-.023-.103-.047-.154-.071l-.016 34.374zm-42.339 90.691c16.873 0 30.553-13.678 30.553-30.553 0-16.873-13.68-30.551-30.553-30.551-16.875 0-30.553 13.678-30.553 30.551 0 16.875 13.678 30.553 30.553 30.553zm60.484 64.205c0-29.766-27.067-40.084-60.477-40.09-33.405.006-60.474 10.324-60.474 40.09v59.654h22.093l-.009-55.643c0-2.215 1.814-4.012 4.049-4.012s4.048 1.797 4.048 4.012l.013 55.643h60.564l.013-55.643c0-2.215 1.812-4.012 4.048-4.012 2.237 0 4.049 1.797 4.049 4.012l-.009 55.643h22.092z"/></g><g id="Capa_1"/></svg>