<svg id="Capa_1" enable-background="new 0 0 512 512" height="512" viewBox="0 0 512 512" width="512" xmlns="http://www.w3.org/2000/svg"><g><path d="m105.03 250.964c18.619 0 32.255-12.575 32.255-29.887 0-17.311-13.637-29.886-32.255-29.886s-32.255 12.575-32.255 29.886c0 17.312 13.637 29.887 32.255 29.887zm0-44.177c7.105 0 12.82 5.389 12.82 14.29 0 8.902-5.715 14.291-12.82 14.291-7.104 0-12.82-5.389-12.82-14.291 0-8.901 5.716-14.29 12.82-14.29z"/><path d="m169.207 223.69 21.721 25.967h15.843v-57.16h-18.782v25.966l-21.721-25.966h-15.842v57.16h18.781z"/><path d="m267.272 234.714h-25.804v-42.217h-19.271v57.16h45.075z"/><path d="m278.699 192.497h19.271v57.16h-19.271z"/><path d="m332.182 223.69 21.721 25.967h15.843v-57.16h-18.782v25.966l-21.721-25.966h-15.842v57.16h18.781z"/><path d="m432.698 235.122h-28.581v-7.513h24.171v-13.881h-24.171v-6.696h27.518v-14.535h-46.463v57.16h47.526z"/><path d="m511.873 124.479h-511.746v194.123h96.14l-93.36 54.759 44.168 25.099-35.791 62.986 88.967 50.554 35.791-62.987 44.168 25.1-1.067-155.511h332.729v-194.123zm-387.092 283.633-35.791 62.987-36.805-20.914 35.791-62.986-25.076-14.25 86.27-50.6.687 100.012zm357.094-119.508h-302.937l-.126-18.417-31.4 18.417h-117.287v-134.127h451.75z"/><path d="m241.001 0h29.998v46.605h-29.998z"/><path d="m335.815 49.119h43.921v29.997h-43.921z" transform="matrix(.707 -.707 .707 .707 59.452 271.765)"/><path d="m139.226 42.157h29.997v43.921h-29.997z" transform="matrix(.707 -.707 .707 .707 -.167 127.833)"/></g></svg>